# xmcd
#
# Track frame offsets:
#	150
#	9737
#	34286
#	53893
#	70551
#	100616
#	115074
#	131932
#	147457
#	173671
#	199877
#	236764
#	257046
#	268880
#	281037
#	294983
#	315072
#
# Disc length: 4495 seconds
#
# Revision: 1
# Processed by: cddbd v1.5.1PL0 Copyright (c) Steve Scherf et al.
# Submitted via: audiograbber 1.83.01
#
DISCID=fc118d11
DTITLE=New Grass Revival - Grass Roots - The Best Of New Grass Revival Disc 1
DYEAR=2005
DGENRE=Bluegrass
TTITLE0=Great Balls Of Fire
TTITLE1=Prince Of Peace
TTITLE2=Casey Jones
TTITLE3=The Dancer
TTITLE4=Doin' My Time
TTITLE5=All Night Train
TTITLE6=Vamp In The Middle
TTITLE7=Spring Peepers
TTITLE8=Lee Highway Blues
TTITLE9=Souvenir Bottles
TTITLE10=Sapporo
TTITLE11=Steam Powered Aero Plane
TTITLE12=When The Storm Is Over
TTITLE13=You Don't Knock
TTITLE14=White Freight Liner Blues
TTITLE15=Good Woman's Love
TTITLE16=Reach
EXTD=
EXTT0=
EXTT1=
EXTT2=
EXTT3=
EXTT4=
EXTT5=
EXTT6=
EXTT7=
EXTT8=
EXTT9=
EXTT10=
EXTT11=
EXTT12=
EXTT13=
EXTT14=
EXTT15=
EXTT16=
PLAYORDER=
